<?xml version="1.0" standalone="no"?>
<svg xmlns="http://www.w3.org/2000/svg" width="324.5666809082031" height="1420"><g class="legend" id="id64" style="font: 10px sans-serif;" transform="translate(0,1380)"><rect width="18" height="18" x="0" style="fill: rgb(127, 201, 127);"/><text y="9" dy=".35em" text-anchor="start" x="24">k__Bacteria;p__TM7;c__TM7-3</text></g><g class="legend" id="id1" style="font: 10px sans-serif;" transform="translate(0,1360)"><rect width="18" height="18" x="0" style="fill: rgb(190, 174, 212);"/><text y="9" dy=".35em" text-anchor="start" x="24">k__Archaea;p__Crenarchaeota;c__Thaumarchaeota</text></g><g class="legend" id="id11" style="font: 10px sans-serif;" transform="translate(0,1340)"><rect width="18" height="18" x="0" style="fill: rgb(253, 192, 134);"/><text y="9" dy=".35em" text-anchor="start" x="24">k__Bacteria;p__Acidobacteria;c__iii1-8</text></g><g class="legend" id="id32" style="font: 10px sans-serif;" transform="translate(0,1320)"><rect width="18" height="18" x="0" style="fill: rgb(255, 255, 153);"/><text y="9" dy=".35em" text-anchor="start" x="24">k__Bacteria;p__Chloroflexi;c__Ellin6529</text></g><g class="legend" id="id17" style="font: 10px sans-serif;" transform="translate(0,1300)"><rect width="18" height="18" x="0" style="fill: rgb(56, 108, 176);"/><text y="9" dy=".35em" text-anchor="start" x="24">k__Bacteria;p__Actinobacteria;c__Rubrobacteria</text></g><g class="legend" id="id50" style="font: 10px sans-serif;" transform="translate(0,1280)"><rect width="18" height="18" x="0" style="fill: rgb(240, 2, 127);"/><text y="9" dy=".35em" text-anchor="start" x="24">k__Bacteria;p__OP3;c__koll11</text></g><g class="legend" id="id16" style="font: 10px sans-serif;" transform="translate(0,1260)"><rect width="18" height="18" x="0" style="fill: rgb(191, 91, 23);"/><text y="9" dy=".35em" text-anchor="start" x="24">k__Bacteria;p__Actinobacteria;c__Nitriliruptoria</text></g><g class="legend" id="id31" style="font: 10px sans-serif;" transform="translate(0,1240)"><rect width="18" height="18" x="0" style="fill: rgb(102, 102, 102);"/><text y="9" dy=".35em" text-anchor="start" x="24">k__Bacteria;p__Chloroflexi;c__Chloroflexi</text></g><g class="legend" id="id47" style="font: 10px sans-serif;" transform="translate(0,1220)"><rect width="18" height="18" x="0" style="fill: rgb(127, 201, 127);"/><text y="9" dy=".35em" text-anchor="start" x="24">k__Bacteria;p__Gemmatimonadetes;c__Gemm-1</text></g><g class="legend" id="id49" style="font: 10px sans-serif;" transform="translate(0,1200)"><rect width="18" height="18" x="0" style="fill: rgb(190, 174, 212);"/><text y="9" dy=".35em" text-anchor="start" x="24">k__Bacteria;p__Nitrospirae;c__Nitrospira</text></g><g class="legend" id="id61" style="font: 10px sans-serif;" transform="translate(0,1180)"><rect width="18" height="18" x="0" style="fill: rgb(253, 192, 134);"/><text y="9" dy=".35em" text-anchor="start" x="24">k__Bacteria;p__TM6;c__SJA-4</text></g><g class="legend" id="id15" style="font: 10px sans-serif;" transform="translate(0,1160)"><rect width="18" height="18" x="0" style="fill: rgb(255, 255, 153);"/><text y="9" dy=".35em" text-anchor="start" x="24">k__Bacteria;p__Actinobacteria;c__MB-A2-108</text></g><g class="legend" id="id21" style="font: 10px sans-serif;" transform="translate(0,1140)"><rect width="18" height="18" x="0" style="fill: rgb(56, 108, 176);"/><text y="9" dy=".35em" text-anchor="start" x="24">k__Bacteria;p__Bacteroidetes;__</text></g><g class="legend" id="id28" style="font: 10px sans-serif;" transform="translate(0,1120)"><rect width="18" height="18" x="0" style="fill: rgb(240, 2, 127);"/><text y="9" dy=".35em" text-anchor="start" x="24">k__Bacteria;p__Chlamydiae;c__Chlamydiia</text></g><g class="legend" id="id36" style="font: 10px sans-serif;" transform="translate(0,1100)"><rect width="18" height="18" x="0" style="fill: rgb(191, 91, 23);"/><text y="9" dy=".35em" text-anchor="start" x="24">k__Bacteria;p__Chloroflexi;c__TK10</text></g><g class="legend" id="id58" style="font: 10px sans-serif;" transform="translate(0,1080)"><rect width="18" height="18" x="0" style="fill: rgb(102, 102, 102);"/><text y="9" dy=".35em" text-anchor="start" x="24">k__Bacteria;p__Proteobacteria;c__Epsilonproteobacteria</text></g><g class="legend" id="id63" style="font: 10px sans-serif;" transform="translate(0,1060)"><rect width="18" height="18" x="0" style="fill: rgb(127, 201, 127);"/><text y="9" dy=".35em" text-anchor="start" x="24">k__Bacteria;p__TM7;c__TM7-1</text></g><g class="legend" id="id9" style="font: 10px sans-serif;" transform="translate(0,1040)"><rect width="18" height="18" x="0" style="fill: rgb(190, 174, 212);"/><text y="9" dy=".35em" text-anchor="start" x="24">k__Bacteria;p__Acidobacteria;c__Sva0725</text></g><g class="legend" id="id3" style="font: 10px sans-serif;" transform="translate(0,1020)"><rect width="18" height="18" x="0" style="fill: rgb(253, 192, 134);"/><text y="9" dy=".35em" text-anchor="start" x="24">k__Bacteria;p__;c__</text></g><g class="legend" id="id4" style="font: 10px sans-serif;" transform="translate(0,1000)"><rect width="18" height="18" x="0" style="fill: rgb(255, 255, 153);"/><text y="9" dy=".35em" text-anchor="start" x="24">k__Bacteria;p__Acidobacteria;c__Acidobacteria-5</text></g><g class="legend" id="id14" style="font: 10px sans-serif;" transform="translate(0,980)"><rect width="18" height="18" x="0" style="fill: rgb(56, 108, 176);"/><text y="9" dy=".35em" text-anchor="start" x="24">k__Bacteria;p__Actinobacteria;c__Coriobacteriia</text></g><g class="legend" id="id33" style="font: 10px sans-serif;" transform="translate(0,960)"><rect width="18" height="18" x="0" style="fill: rgb(240, 2, 127);"/><text y="9" dy=".35em" text-anchor="start" x="24">k__Bacteria;p__Chloroflexi;c__Gitt-GS-136</text></g><g class="legend" id="id37" style="font: 10px sans-serif;" transform="translate(0,940)"><rect width="18" height="18" x="0" style="fill: rgb(191, 91, 23);"/><text y="9" dy=".35em" text-anchor="start" x="24">k__Bacteria;p__Chloroflexi;c__Thermomicrobia</text></g><g class="legend" id="id7" style="font: 10px sans-serif;" transform="translate(0,920)"><rect width="18" height="18" x="0" style="fill: rgb(102, 102, 102);"/><text y="9" dy=".35em" text-anchor="start" x="24">k__Bacteria;p__Acidobacteria;c__DA052</text></g><g class="legend" id="id30" style="font: 10px sans-serif;" transform="translate(0,900)"><rect width="18" height="18" x="0" style="fill: rgb(127, 201, 127);"/><text y="9" dy=".35em" text-anchor="start" x="24">k__Bacteria;p__Chloroflexi;c__Anaerolineae</text></g><g class="legend" id="id46" style="font: 10px sans-serif;" transform="translate(0,880)"><rect width="18" height="18" x="0" style="fill: rgb(190, 174, 212);"/><text y="9" dy=".35em" text-anchor="start" x="24">k__Bacteria;p__Fusobacteria;c__Fusobacteriia</text></g><g class="legend" id="id66" style="font: 10px sans-serif;" transform="translate(0,860)"><rect width="18" height="18" x="0" style="fill: rgb(253, 192, 134);"/><text y="9" dy=".35em" text-anchor="start" x="24">k__Bacteria;p__Verrucomicrobia;c__Verrucomicrobiae</text></g><g class="legend" id="id69" style="font: 10px sans-serif;" transform="translate(0,840)"><rect width="18" height="18" x="0" style="fill: rgb(255, 255, 153);"/><text y="9" dy=".35em" text-anchor="start" x="24">k__Bacteria;p__[Thermi];c__Deinococci</text></g><g class="legend" id="id48" style="font: 10px sans-serif;" transform="translate(0,820)"><rect width="18" height="18" x="0" style="fill: rgb(56, 108, 176);"/><text y="9" dy=".35em" text-anchor="start" x="24">k__Bacteria;p__Gemmatimonadetes;c__Gemmatimonadetes</text></g><g class="legend" id="id60" style="font: 10px sans-serif;" transform="translate(0,800)"><rect width="18" height="18" x="0" style="fill: rgb(240, 2, 127);"/><text y="9" dy=".35em" text-anchor="start" x="24">k__Bacteria;p__SAR406;c__AB16</text></g><g class="legend" id="id8" style="font: 10px sans-serif;" transform="translate(0,780)"><rect width="18" height="18" x="0" style="fill: rgb(191, 91, 23);"/><text y="9" dy=".35em" text-anchor="start" x="24">k__Bacteria;p__Acidobacteria;c__Solibacteres</text></g><g class="legend" id="id26" style="font: 10px sans-serif;" transform="translate(0,760)"><rect width="18" height="18" x="0" style="fill: rgb(102, 102, 102);"/><text y="9" dy=".35em" text-anchor="start" x="24">k__Bacteria;p__Bacteroidetes;c__[Rhodothermi]</text></g><g class="legend" id="id22" style="font: 10px sans-serif;" transform="translate(0,740)"><rect width="18" height="18" x="0" style="fill: rgb(127, 201, 127);"/><text y="9" dy=".35em" text-anchor="start" x="24">k__Bacteria;p__Bacteroidetes;c__Bacteroidia</text></g><g class="legend" id="id51" style="font: 10px sans-serif;" transform="translate(0,720)"><rect width="18" height="18" x="0" style="fill: rgb(190, 174, 212);"/><text y="9" dy=".35em" text-anchor="start" x="24">k__Bacteria;p__Planctomycetes;c__OM190</text></g><g class="legend" id="id62" style="font: 10px sans-serif;" transform="translate(0,700)"><rect width="18" height="18" x="0" style="fill: rgb(253, 192, 134);"/><text y="9" dy=".35em" text-anchor="start" x="24">k__Bacteria;p__TM7;c__SC3</text></g><g class="legend" id="id35" style="font: 10px sans-serif;" transform="translate(0,680)"><rect width="18" height="18" x="0" style="fill: rgb(255, 255, 153);"/><text y="9" dy=".35em" text-anchor="start" x="24">k__Bacteria;p__Chloroflexi;c__SAR202</text></g><g class="legend" id="id19" style="font: 10px sans-serif;" transform="translate(0,660)"><rect width="18" height="18" x="0" style="fill: rgb(56, 108, 176);"/><text y="9" dy=".35em" text-anchor="start" x="24">k__Bacteria;p__Armatimonadetes;c__Armatimonadia</text></g><g class="legend" id="id34" style="font: 10px sans-serif;" transform="translate(0,640)"><rect width="18" height="18" x="0" style="fill: rgb(240, 2, 127);"/><text y="9" dy=".35em" text-anchor="start" x="24">k__Bacteria;p__Chloroflexi;c__Ktedonobacteria</text></g><g class="legend" id="id52" style="font: 10px sans-serif;" transform="translate(0,620)"><rect width="18" height="18" x="0" style="fill: rgb(191, 91, 23);"/><text y="9" dy=".35em" text-anchor="start" x="24">k__Bacteria;p__Planctomycetes;c__Phycisphaerae</text></g><g class="legend" id="id12" style="font: 10px sans-serif;" transform="translate(0,600)"><rect width="18" height="18" x="0" style="fill: rgb(102, 102, 102);"/><text y="9" dy=".35em" text-anchor="start" x="24">k__Bacteria;p__Actinobacteria;c__Acidimicrobiia</text></g><g class="legend" id="id10" style="font: 10px sans-serif;" transform="translate(0,580)"><rect width="18" height="18" x="0" style="fill: rgb(127, 201, 127);"/><text y="9" dy=".35em" text-anchor="start" x="24">k__Bacteria;p__Acidobacteria;c__[Chloracidobacteria]</text></g><g class="legend" id="id5" style="font: 10px sans-serif;" transform="translate(0,560)"><rect width="18" height="18" x="0" style="fill: rgb(190, 174, 212);"/><text y="9" dy=".35em" text-anchor="start" x="24">k__Bacteria;p__Acidobacteria;c__Acidobacteria-6</text></g><g class="legend" id="id29" style="font: 10px sans-serif;" transform="translate(0,540)"><rect width="18" height="18" x="0" style="fill: rgb(253, 192, 134);"/><text y="9" dy=".35em" text-anchor="start" x="24">k__Bacteria;p__Chlorobi;c__Ignavibacteria</text></g><g class="legend" id="id68" style="font: 10px sans-serif;" transform="translate(0,520)"><rect width="18" height="18" x="0" style="fill: rgb(255, 255, 153);"/><text y="9" dy=".35em" text-anchor="start" x="24">k__Bacteria;p__WPS-2;c__</text></g><g class="legend" id="id42" style="font: 10px sans-serif;" transform="translate(0,500)"><rect width="18" height="18" x="0" style="fill: rgb(56, 108, 176);"/><text y="9" dy=".35em" text-anchor="start" x="24">k__Bacteria;p__Cyanobacteria;c__Synechococcophycideae</text></g><g class="legend" id="id6" style="font: 10px sans-serif;" transform="translate(0,480)"><rect width="18" height="18" x="0" style="fill: rgb(240, 2, 127);"/><text y="9" dy=".35em" text-anchor="start" x="24">k__Bacteria;p__Acidobacteria;c__Acidobacteriia</text></g><g class="legend" id="id24" style="font: 10px sans-serif;" transform="translate(0,460)"><rect width="18" height="18" x="0" style="fill: rgb(191, 91, 23);"/><text y="9" dy=".35em" text-anchor="start" x="24">k__Bacteria;p__Bacteroidetes;c__Flavobacteriia</text></g><g class="legend" id="id45" style="font: 10px sans-serif;" transform="translate(0,440)"><rect width="18" height="18" x="0" style="fill: rgb(102, 102, 102);"/><text y="9" dy=".35em" text-anchor="start" x="24">k__Bacteria;p__Firmicutes;c__Clostridia</text></g><g class="legend" id="id20" style="font: 10px sans-serif;" transform="translate(0,420)"><rect width="18" height="18" x="0" style="fill: rgb(127, 201, 127);"/><text y="9" dy=".35em" text-anchor="start" x="24">k__Bacteria;p__Armatimonadetes;c__[Fimbriimonadia]</text></g><g class="legend" id="id53" style="font: 10px sans-serif;" transform="translate(0,400)"><rect width="18" height="18" x="0" style="fill: rgb(190, 174, 212);"/><text y="9" dy=".35em" text-anchor="start" x="24">k__Bacteria;p__Planctomycetes;c__Planctomycetia</text></g><g class="legend" id="id41" style="font: 10px sans-serif;" transform="translate(0,380)"><rect width="18" height="18" x="0" style="fill: rgb(253, 192, 134);"/><text y="9" dy=".35em" text-anchor="start" x="24">k__Bacteria;p__Cyanobacteria;c__Oscillatoriophycideae</text></g><g class="legend" id="id67" style="font: 10px sans-serif;" transform="translate(0,360)"><rect width="18" height="18" x="0" style="fill: rgb(255, 255, 153);"/><text y="9" dy=".35em" text-anchor="start" x="24">k__Bacteria;p__Verrucomicrobia;c__[Spartobacteria]</text></g><g class="legend" id="id40" style="font: 10px sans-serif;" transform="translate(0,340)"><rect width="18" height="18" x="0" style="fill: rgb(56, 108, 176);"/><text y="9" dy=".35em" text-anchor="start" x="24">k__Bacteria;p__Cyanobacteria;c__Nostocophycideae</text></g><g class="legend" id="id43" style="font: 10px sans-serif;" transform="translate(0,320)"><rect width="18" height="18" x="0" style="fill: rgb(240, 2, 127);"/><text y="9" dy=".35em" text-anchor="start" x="24">k__Bacteria;p__FBP;c__</text></g><g class="legend" id="id18" style="font: 10px sans-serif;" transform="translate(0,300)"><rect width="18" height="18" x="0" style="fill: rgb(191, 91, 23);"/><text y="9" dy=".35em" text-anchor="start" x="24">k__Bacteria;p__Actinobacteria;c__Thermoleophilia</text></g><g class="legend" id="id25" style="font: 10px sans-serif;" transform="translate(0,280)"><rect width="18" height="18" x="0" style="fill: rgb(102, 102, 102);"/><text y="9" dy=".35em" text-anchor="start" x="24">k__Bacteria;p__Bacteroidetes;c__Sphingobacteriia</text></g><g class="legend" id="id39" style="font: 10px sans-serif;" transform="translate(0,260)"><rect width="18" height="18" x="0" style="fill: rgb(127, 201, 127);"/><text y="9" dy=".35em" text-anchor="start" x="24">k__Bacteria;p__Cyanobacteria;c__4C0d-2</text></g><g class="legend" id="id57" style="font: 10px sans-serif;" transform="translate(0,240)"><rect width="18" height="18" x="0" style="fill: rgb(190, 174, 212); cursor: pointer;"/><text y="9" dy=".35em" text-anchor="start" x="24">k__Bacteria;p__Proteobacteria;c__Deltaproteobacteria</text></g><g class="legend" id="id44" style="font: 10px sans-serif;" transform="translate(0,220)"><rect width="18" height="18" x="0" style="fill: rgb(253, 192, 134);"/><text y="9" dy=".35em" text-anchor="start" x="24">k__Bacteria;p__Firmicutes;c__Bacilli</text></g><g class="legend" id="id0" style="font: 10px sans-serif;" transform="translate(0,200)"><rect width="18" height="18" x="0" style="fill: rgb(255, 255, 153);"/><text y="9" dy=".35em" text-anchor="start" x="24">Unassigned;__;__</text></g><g class="legend" id="id38" style="font: 10px sans-serif;" transform="translate(0,180)"><rect width="18" height="18" x="0" style="fill: rgb(56, 108, 176);"/><text y="9" dy=".35em" text-anchor="start" x="24">k__Bacteria;p__Cyanobacteria;__</text></g><g class="legend" id="id54" style="font: 10px sans-serif;" transform="translate(0,160)"><rect width="18" height="18" x="0" style="fill: rgb(240, 2, 127);"/><text y="9" dy=".35em" text-anchor="start" x="24">k__Bacteria;p__Proteobacteria;__</text></g><g class="legend" id="id65" style="font: 10px sans-serif;" transform="translate(0,140)"><rect width="18" height="18" x="0" style="fill: rgb(191, 91, 23);"/><text y="9" dy=".35em" text-anchor="start" x="24">k__Bacteria;p__Verrucomicrobia;c__Opitutae</text></g><g class="legend" id="id13" style="font: 10px sans-serif;" transform="translate(0,120)"><rect width="18" height="18" x="0" style="fill: rgb(102, 102, 102);"/><text y="9" dy=".35em" text-anchor="start" x="24">k__Bacteria;p__Actinobacteria;c__Actinobacteria</text></g><g class="legend" id="id23" style="font: 10px sans-serif;" transform="translate(0,100)"><rect width="18" height="18" x="0" style="fill: rgb(127, 201, 127); cursor: pointer;"/><text y="9" dy=".35em" text-anchor="start" x="24">k__Bacteria;p__Bacteroidetes;c__Cytophagia</text></g><g class="legend" id="id27" style="font: 10px sans-serif;" transform="translate(0,80)"><rect width="18" height="18" x="0" style="fill: rgb(190, 174, 212);"/><text y="9" dy=".35em" text-anchor="start" x="24">k__Bacteria;p__Bacteroidetes;c__[Saprospirae]</text></g><g class="legend" id="id2" style="font: 10px sans-serif;" transform="translate(0,60)"><rect width="18" height="18" x="0" style="fill: rgb(253, 192, 134);"/><text y="9" dy=".35em" text-anchor="start" x="24">k__Bacteria;__;__</text></g><g class="legend" id="id59" style="font: 10px sans-serif;" transform="translate(0,40)"><rect width="18" height="18" x="0" style="fill: rgb(255, 255, 153);"/><text y="9" dy=".35em" text-anchor="start" x="24">k__Bacteria;p__Proteobacteria;c__Gammaproteobacteria</text></g><g class="legend" id="id56" style="font: 10px sans-serif;" transform="translate(0,20)"><rect width="18" height="18" x="0" style="fill: rgb(56, 108, 176);"/><text y="9" dy=".35em" text-anchor="start" x="24">k__Bacteria;p__Proteobacteria;c__Betaproteobacteria</text></g><g class="legend" id="id55" style="font: 10px sans-serif;" transform="translate(0,0)"><rect width="18" height="18" x="0" style="fill: rgb(240, 2, 127);"/><text y="9" dy=".35em" text-anchor="start" x="24">k__Bacteria;p__Proteobacteria;c__Alphaproteobacteria</text></g></svg>