<?xml version="1.0" encoding="UTF-8" standalone="no"?>
<!-- Created with Inkscape (http://www.inkscape.org/) -->

<svg
   xmlns:dc="http://purl.org/dc/elements/1.1/"
   xmlns:cc="http://creativecommons.org/ns#"
   xmlns:rdf="http://www.w3.org/1999/02/22-rdf-syntax-ns#"
   xmlns:svg="http://www.w3.org/2000/svg"
   xmlns="http://www.w3.org/2000/svg"
   xmlns:sodipodi="http://sodipodi.sourceforge.net/DTD/sodipodi-0.dtd"
   xmlns:inkscape="http://www.inkscape.org/namespaces/inkscape"
   version="1.1"
   id="svg2"
   xml:space="preserve"
   width="475.5687"
   height="208.3558"
   viewBox="0 0 475.5687 208.3558"
   sodipodi:docname="faithspd_fig.svg"
   inkscape:version="0.92.2 5c3e80d, 2017-08-06"><metadata
     id="metadata8"><rdf:RDF><cc:Work
         rdf:about=""><dc:format>image/svg+xml</dc:format><dc:type
           rdf:resource="http://purl.org/dc/dcmitype/StillImage" /><dc:title></dc:title></cc:Work></rdf:RDF></metadata><defs
     id="defs6"><clipPath
       clipPathUnits="userSpaceOnUse"
       id="clipPath24"><path
         d="M 0,169.4118 H 419.625 V 338.8236 H 0 Z"
         id="path22"
         inkscape:connector-curvature="0" /></clipPath><clipPath
       clipPathUnits="userSpaceOnUse"
       id="clipPath36"><path
         d="M 158.3432,200.9026 H 414.1456 V 315.6379 H 158.3432 Z"
         id="path34"
         inkscape:connector-curvature="0" /></clipPath><clipPath
       clipPathUnits="userSpaceOnUse"
       id="clipPath304"><path
         d="M 0,0 H 419.625 V 338.8235 H 0 Z"
         id="path302"
         inkscape:connector-curvature="0" /></clipPath><clipPath
       clipPathUnits="userSpaceOnUse"
       id="clipPath366"><path
         d="M 0,0 H 419.625 V 338.8235 H 0 Z"
         id="path364"
         inkscape:connector-curvature="0" /></clipPath><clipPath
       clipPathUnits="userSpaceOnUse"
       id="clipPath410"><path
         d="M 0,0 H 419.625 V 338.8235 H 0 Z"
         id="path408"
         inkscape:connector-curvature="0" /></clipPath><clipPath
       clipPathUnits="userSpaceOnUse"
       id="clipPath430"><path
         d="M 0,0 H 419.625 V 338.8235 H 0 Z"
         id="path428"
         inkscape:connector-curvature="0" /></clipPath><clipPath
       clipPathUnits="userSpaceOnUse"
       id="clipPath456"><path
         d="M 0,0 H 419.625 V 338.8235 H 0 Z"
         id="path454"
         inkscape:connector-curvature="0" /></clipPath><clipPath
       clipPathUnits="userSpaceOnUse"
       id="clipPath470"><path
         d="M 0,0 H 419.625 V 338.8235 H 0 Z"
         id="path468"
         inkscape:connector-curvature="0" /></clipPath><clipPath
       clipPathUnits="userSpaceOnUse"
       id="clipPath484"><path
         d="M 0,0 H 419.625 V 169.4118 H 0 Z"
         id="path482"
         inkscape:connector-curvature="0" /></clipPath><clipPath
       clipPathUnits="userSpaceOnUse"
       id="clipPath496"><path
         d="m 158.3432,31.49082 h 255.8024 v 114.7353 H 158.3432 Z"
         id="path494"
         inkscape:connector-curvature="0" /></clipPath><clipPath
       clipPathUnits="userSpaceOnUse"
       id="clipPath732"><path
         d="M 0,0 H 419.625 V 338.8235 H 0 Z"
         id="path730"
         inkscape:connector-curvature="0" /></clipPath><clipPath
       clipPathUnits="userSpaceOnUse"
       id="clipPath794"><path
         d="M 0,0 H 419.625 V 338.8235 H 0 Z"
         id="path792"
         inkscape:connector-curvature="0" /></clipPath><clipPath
       clipPathUnits="userSpaceOnUse"
       id="clipPath838"><path
         d="M 0,0 H 419.625 V 338.8235 H 0 Z"
         id="path836"
         inkscape:connector-curvature="0" /></clipPath><clipPath
       clipPathUnits="userSpaceOnUse"
       id="clipPath866"><path
         d="M 0,0 H 419.625 V 338.8235 H 0 Z"
         id="path864"
         inkscape:connector-curvature="0" /></clipPath><clipPath
       clipPathUnits="userSpaceOnUse"
       id="clipPath904"><path
         d="M 0,0 H 419.625 V 338.8235 H 0 Z"
         id="path902"
         inkscape:connector-curvature="0" /></clipPath><clipPath
       clipPathUnits="userSpaceOnUse"
       id="clipPath918"><path
         d="M 0,0 H 419.625 V 338.8235 H 0 Z"
         id="path916"
         inkscape:connector-curvature="0" /></clipPath></defs><sodipodi:namedview
     pagecolor="#ffffff"
     bordercolor="#666666"
     borderopacity="1"
     objecttolerance="10"
     gridtolerance="10"
     guidetolerance="10"
     inkscape:pageopacity="0"
     inkscape:pageshadow="2"
     inkscape:window-width="1276"
     inkscape:window-height="717"
     id="namedview4"
     showgrid="false"
     fit-margin-top="0"
     fit-margin-left="0"
     fit-margin-right="0"
     fit-margin-bottom="0"
     inkscape:zoom="1.0447917"
     inkscape:cx="203.12457"
     inkscape:cy="66.349696"
     inkscape:window-x="0"
     inkscape:window-y="0"
     inkscape:window-maximized="0"
     inkscape:current-layer="g10" /><g
     id="g10"
     inkscape:groupmode="layer"
     inkscape:label="faithspd_fig"
     transform="matrix(1.3333333,0,0,-1.3333333,-76.625426,444.45872)"><g
       id="g12" /><g
       id="g14"><path
         d="M 0,338.8235 H 30213 V -24056.47 H 0 Z"
         style="fill:#ffffff;fill-opacity:0;fill-rule:nonzero;stroke:none"
         id="path16"
         inkscape:connector-curvature="0" /></g><g
       id="g30"><g
         id="g32"
         clip-path="url(#clipPath36)"><g
           id="g38"
           transform="matrix(1,0,0,-1,0,338.8235)"><path
             d="M 158.3432,23.18566 H 414.1455 V 137.9209 H 158.3432 Z"
             style="fill:#ebebeb;fill-opacity:1;fill-rule:nonzero;stroke:#ffffff;stroke-width:1.06697798;stroke-linecap:round;stroke-linejoin:round;stroke-miterlimit:10;stroke-dasharray:none;stroke-opacity:0"
             id="path40"
             inkscape:connector-curvature="0" /></g><g
           id="g42"
           transform="matrix(1,0,0,-1,0,338.8235)"><path
             d="M 184.4979,137.9209 V 23.18566"
             style="fill:none;stroke:#ffffff;stroke-width:0.53348923;stroke-linecap:butt;stroke-linejoin:round;stroke-miterlimit:10;stroke-dasharray:none;stroke-opacity:1"
             id="path44"
             inkscape:connector-curvature="0" /></g><g
           id="g46"
           transform="matrix(1,0,0,-1,0,338.8235)"><path
             d="M 271.5468,137.9209 V 23.18566"
             style="fill:none;stroke:#ffffff;stroke-width:0.53348923;stroke-linecap:butt;stroke-linejoin:round;stroke-miterlimit:10;stroke-dasharray:none;stroke-opacity:1"
             id="path48"
             inkscape:connector-curvature="0" /></g><g
           id="g50"
           transform="matrix(1,0,0,-1,0,338.8235)"><path
             d="M 358.5956,137.9209 V 23.18566"
             style="fill:none;stroke:#ffffff;stroke-width:0.53348923;stroke-linecap:butt;stroke-linejoin:round;stroke-miterlimit:10;stroke-dasharray:none;stroke-opacity:1"
             id="path52"
             inkscape:connector-curvature="0" /></g><g
           id="g54"
           transform="matrix(1,0,0,-1,0,338.8235)"><path
             d="M 158.3432,130.4382 H 414.1455"
             style="fill:none;stroke:#ffffff;stroke-width:1.06697798;stroke-linecap:butt;stroke-linejoin:round;stroke-miterlimit:10;stroke-dasharray:none;stroke-opacity:1"
             id="path56"
             inkscape:connector-curvature="0" /></g><g
           id="g58"
           transform="matrix(1,0,0,-1,0,338.8235)"><path
             d="M 158.3432,117.967 H 414.1455"
             style="fill:none;stroke:#ffffff;stroke-width:1.06697798;stroke-linecap:butt;stroke-linejoin:round;stroke-miterlimit:10;stroke-dasharray:none;stroke-opacity:1"
             id="path60"
             inkscape:connector-curvature="0" /></g><g
           id="g62"
           transform="matrix(1,0,0,-1,0,338.8235)"><path
             d="M 158.3432,105.4958 H 414.1455"
             style="fill:none;stroke:#ffffff;stroke-width:1.06697798;stroke-linecap:butt;stroke-linejoin:round;stroke-miterlimit:10;stroke-dasharray:none;stroke-opacity:1"
             id="path64"
             inkscape:connector-curvature="0" /></g><g
           id="g66"
           transform="matrix(1,0,0,-1,0,338.8235)"><path
             d="M 158.3432,93.02453 H 414.1455"
             style="fill:none;stroke:#ffffff;stroke-width:1.06697798;stroke-linecap:butt;stroke-linejoin:round;stroke-miterlimit:10;stroke-dasharray:none;stroke-opacity:1"
             id="path68"
             inkscape:connector-curvature="0" /></g><g
           id="g70"
           transform="matrix(1,0,0,-1,0,338.8235)"><path
             d="M 158.3432,80.5533 H 414.1455"
             style="fill:none;stroke:#ffffff;stroke-width:1.06697798;stroke-linecap:butt;stroke-linejoin:round;stroke-miterlimit:10;stroke-dasharray:none;stroke-opacity:1"
             id="path72"
             inkscape:connector-curvature="0" /></g><g
           id="g74"
           transform="matrix(1,0,0,-1,0,338.8235)"><path
             d="M 158.3432,68.08208 H 414.1455"
             style="fill:none;stroke:#ffffff;stroke-width:1.06697798;stroke-linecap:butt;stroke-linejoin:round;stroke-miterlimit:10;stroke-dasharray:none;stroke-opacity:1"
             id="path76"
             inkscape:connector-curvature="0" /></g><g
           id="g78"
           transform="matrix(1,0,0,-1,0,338.8235)"><path
             d="M 158.3432,55.61085 H 414.1455"
             style="fill:none;stroke:#ffffff;stroke-width:1.06697798;stroke-linecap:butt;stroke-linejoin:round;stroke-miterlimit:10;stroke-dasharray:none;stroke-opacity:1"
             id="path80"
             inkscape:connector-curvature="0" /></g><g
           id="g82"
           transform="matrix(1,0,0,-1,0,338.8235)"><path
             d="M 158.3432,43.13962 H 414.1455"
             style="fill:none;stroke:#ffffff;stroke-width:1.06697798;stroke-linecap:butt;stroke-linejoin:round;stroke-miterlimit:10;stroke-dasharray:none;stroke-opacity:1"
             id="path84"
             inkscape:connector-curvature="0" /></g><g
           id="g86"
           transform="matrix(1,0,0,-1,0,338.8235)"><path
             d="M 158.3432,30.6684 H 414.1455"
             style="fill:none;stroke:#ffffff;stroke-width:1.06697798;stroke-linecap:butt;stroke-linejoin:round;stroke-miterlimit:10;stroke-dasharray:none;stroke-opacity:1"
             id="path88"
             inkscape:connector-curvature="0" /></g><g
           id="g90"
           transform="matrix(1,0,0,-1,0,338.8235)"><path
             d="M 228.0224,137.9209 V 23.18566"
             style="fill:none;stroke:#ffffff;stroke-width:1.06697798;stroke-linecap:butt;stroke-linejoin:round;stroke-miterlimit:10;stroke-dasharray:none;stroke-opacity:1"
             id="path92"
             inkscape:connector-curvature="0" /></g><g
           id="g94"
           transform="matrix(1,0,0,-1,0,338.8235)"><path
             d="M 315.0712,137.9209 V 23.18566"
             style="fill:none;stroke:#ffffff;stroke-width:1.06697798;stroke-linecap:butt;stroke-linejoin:round;stroke-miterlimit:10;stroke-dasharray:none;stroke-opacity:1"
             id="path96"
             inkscape:connector-curvature="0" /></g><g
           id="g98"
           transform="matrix(1,0,0,-1,0,338.8235)"><path
             d="M 402.12,137.9209 V 23.18566"
             style="fill:none;stroke:#ffffff;stroke-width:1.06697798;stroke-linecap:butt;stroke-linejoin:round;stroke-miterlimit:10;stroke-dasharray:none;stroke-opacity:1"
             id="path100"
             inkscape:connector-curvature="0" /></g><g
           id="g102"
           transform="matrix(1,0,0,-1,0,338.8235)"><path
             d="m 249.3898,130.4382 h 48.4905"
             style="fill:none;stroke:#333333;stroke-width:1.06697798;stroke-linecap:butt;stroke-linejoin:round;stroke-miterlimit:10;stroke-dasharray:none;stroke-opacity:1"
             id="path104"
             inkscape:connector-curvature="0" /></g><g
           id="g106"
           transform="matrix(1,0,0,-1,0,338.8235)"><path
             d="M 207.0139,130.4382 H 182.4117"
             style="fill:none;stroke:#333333;stroke-width:1.06697798;stroke-linecap:butt;stroke-linejoin:round;stroke-miterlimit:10;stroke-dasharray:none;stroke-opacity:1"
             id="path108"
             inkscape:connector-curvature="0" /></g><g
           id="g110"
           transform="matrix(1,0,0,-1,0,338.8235)"><path
             d="m 249.3898,135.1149 h -42.3759 v -9.3534 h 42.3759 z"
             style="fill:#ffffff;fill-opacity:1;fill-rule:nonzero;stroke:#333333;stroke-width:1.06697798;stroke-linecap:round;stroke-linejoin:round;stroke-miterlimit:10;stroke-dasharray:none;stroke-opacity:1"
             id="path112"
             inkscape:connector-curvature="0" /></g><g
           id="g114"
           transform="matrix(1,0,0,-1,0,338.8235)"><path
             d="m 221.5509,135.1149 v -9.3534"
             style="fill:none;stroke:#333333;stroke-width:2.13395691;stroke-linecap:butt;stroke-linejoin:round;stroke-miterlimit:10;stroke-dasharray:none;stroke-opacity:1"
             id="path116"
             inkscape:connector-curvature="0" /></g><g
           id="g118"
           transform="matrix(1,0,0,-1,0,338.8235)"><path
             d="m 362.6743,117.967 c 0,1.0796 -0.8752,1.9548 -1.9548,1.9548 -1.0796,0 -1.9548,-0.8752 -1.9548,-1.9548 0,-1.0796 0.8752,-1.9548 1.9548,-1.9548 1.0796,0 1.9548,0.8752 1.9548,1.9548 z"
             style="fill:#333333;fill-opacity:1;fill-rule:nonzero;stroke:#333333;stroke-width:0.70866138;stroke-linecap:round;stroke-linejoin:round;stroke-miterlimit:10;stroke-dasharray:none;stroke-opacity:1"
             id="path120"
             inkscape:connector-curvature="0" /></g><g
           id="g122"
           transform="matrix(1,0,0,-1,0,338.8235)"><path
             d="m 247.8316,117.967 h 40.5025"
             style="fill:none;stroke:#333333;stroke-width:1.06697798;stroke-linecap:butt;stroke-linejoin:round;stroke-miterlimit:10;stroke-dasharray:none;stroke-opacity:1"
             id="path124"
             inkscape:connector-curvature="0" /></g><g
           id="g126"
           transform="matrix(1,0,0,-1,0,338.8235)"><path
             d="m 213.4141,117.967 h -19.148"
             style="fill:none;stroke:#333333;stroke-width:1.06697798;stroke-linecap:butt;stroke-linejoin:round;stroke-miterlimit:10;stroke-dasharray:none;stroke-opacity:1"
             id="path128"
             inkscape:connector-curvature="0" /></g><g
           id="g130"
           transform="matrix(1,0,0,-1,0,338.8235)"><path
             d="m 247.8316,122.6437 h -34.4175 v -9.3534 h 34.4175 z"
             style="fill:#ffffff;fill-opacity:1;fill-rule:nonzero;stroke:#333333;stroke-width:1.06697798;stroke-linecap:round;stroke-linejoin:round;stroke-miterlimit:10;stroke-dasharray:none;stroke-opacity:1"
             id="path132"
             inkscape:connector-curvature="0" /></g><g
           id="g134"
           transform="matrix(1,0,0,-1,0,338.8235)"><path
             d="m 228.5237,122.6437 v -9.3534"
             style="fill:none;stroke:#333333;stroke-width:2.13395691;stroke-linecap:butt;stroke-linejoin:round;stroke-miterlimit:10;stroke-dasharray:none;stroke-opacity:1"
             id="path136"
             inkscape:connector-curvature="0" /></g><g
           id="g138"
           transform="matrix(1,0,0,-1,0,338.8235)"><path
             d="m 270.1901,105.4958 c 0,1.0796 -0.8752,1.9548 -1.9548,1.9548 -1.0796,0 -1.9548,-0.8752 -1.9548,-1.9548 0,-1.0797 0.8752,-1.9548 1.9548,-1.9548 1.0796,0 1.9548,0.8751 1.9548,1.9548 z"
             style="fill:#333333;fill-opacity:1;fill-rule:nonzero;stroke:#333333;stroke-width:0.70866138;stroke-linecap:round;stroke-linejoin:round;stroke-miterlimit:10;stroke-dasharray:none;stroke-opacity:1"
             id="path140"
             inkscape:connector-curvature="0" /></g><g
           id="g142"
           transform="matrix(1,0,0,-1,0,338.8235)"><path
             d="m 281.8313,105.4958 c 0,1.0796 -0.8752,1.9548 -1.9548,1.9548 -1.0796,0 -1.9548,-0.8752 -1.9548,-1.9548 0,-1.0797 0.8752,-1.9548 1.9548,-1.9548 1.0796,0 1.9548,0.8751 1.9548,1.9548 z"
             style="fill:#333333;fill-opacity:1;fill-rule:nonzero;stroke:#333333;stroke-width:0.70866138;stroke-linecap:round;stroke-linejoin:round;stroke-miterlimit:10;stroke-dasharray:none;stroke-opacity:1"
             id="path144"
             inkscape:connector-curvature="0" /></g><g
           id="g146"
           transform="matrix(1,0,0,-1,0,338.8235)"><path
             d="m 223.6493,105.4958 v 0"
             style="fill:none;stroke:#333333;stroke-width:1.06697798;stroke-linecap:butt;stroke-linejoin:round;stroke-miterlimit:10;stroke-dasharray:none;stroke-opacity:1"
             id="path148"
             inkscape:connector-curvature="0" /></g><g
           id="g150"
           transform="matrix(1,0,0,-1,0,338.8235)"><path
             d="m 198.9429,105.4958 h -8.3105"
             style="fill:none;stroke:#333333;stroke-width:1.06697798;stroke-linecap:butt;stroke-linejoin:round;stroke-miterlimit:10;stroke-dasharray:none;stroke-opacity:1"
             id="path152"
             inkscape:connector-curvature="0" /></g><g
           id="g154"
           transform="matrix(1,0,0,-1,0,338.8235)"><path
             d="m 223.6493,110.1725 h -24.7064 v -9.3535 h 24.7064 z"
             style="fill:#ffffff;fill-opacity:1;fill-rule:nonzero;stroke:#333333;stroke-width:1.06697798;stroke-linecap:round;stroke-linejoin:round;stroke-miterlimit:10;stroke-dasharray:none;stroke-opacity:1"
             id="path156"
             inkscape:connector-curvature="0" /></g><g
           id="g158"
           transform="matrix(1,0,0,-1,0,338.8235)"><path
             d="M 203.7647,110.1725 V 100.819"
             style="fill:none;stroke:#333333;stroke-width:2.13395691;stroke-linecap:butt;stroke-linejoin:round;stroke-miterlimit:10;stroke-dasharray:none;stroke-opacity:1"
             id="path160"
             inkscape:connector-curvature="0" /></g><g
           id="g162"
           transform="matrix(1,0,0,-1,0,338.8235)"><path
             d="m 367.0611,93.02453 c 0,1.0796 -0.8752,1.9548 -1.9548,1.9548 -1.0796,0 -1.9548,-0.8752 -1.9548,-1.9548 0,-1.07961 0.8752,-1.9548 1.9548,-1.9548 1.0796,0 1.9548,0.87519 1.9548,1.9548 z"
             style="fill:#333333;fill-opacity:1;fill-rule:nonzero;stroke:#333333;stroke-width:0.70866138;stroke-linecap:round;stroke-linejoin:round;stroke-miterlimit:10;stroke-dasharray:none;stroke-opacity:1"
             id="path164"
             inkscape:connector-curvature="0" /></g><g
           id="g166"
           transform="matrix(1,0,0,-1,0,338.8235)"><path
             d="m 344.4909,93.02453 c 0,1.0796 -0.8752,1.9548 -1.9548,1.9548 -1.0796,0 -1.9548,-0.8752 -1.9548,-1.9548 0,-1.07961 0.8752,-1.9548 1.9548,-1.9548 1.0796,0 1.9548,0.87519 1.9548,1.9548 z"
             style="fill:#333333;fill-opacity:1;fill-rule:nonzero;stroke:#333333;stroke-width:0.70866138;stroke-linecap:round;stroke-linejoin:round;stroke-miterlimit:10;stroke-dasharray:none;stroke-opacity:1"
             id="path168"
             inkscape:connector-curvature="0" /></g><g
           id="g170"
           transform="matrix(1,0,0,-1,0,338.8235)"><path
             d="m 399.3836,93.02453 c 0,1.0796 -0.8752,1.9548 -1.9548,1.9548 -1.0796,0 -1.9548,-0.8752 -1.9548,-1.9548 0,-1.07961 0.8752,-1.9548 1.9548,-1.9548 1.0796,0 1.9548,0.87519 1.9548,1.9548 z"
             style="fill:#333333;fill-opacity:1;fill-rule:nonzero;stroke:#333333;stroke-width:0.70866138;stroke-linecap:round;stroke-linejoin:round;stroke-miterlimit:10;stroke-dasharray:none;stroke-opacity:1"
             id="path172"
             inkscape:connector-curvature="0" /></g><g
           id="g174"
           transform="matrix(1,0,0,-1,0,338.8235)"><path
             d="m 255.7174,93.02453 h 45.9485"
             style="fill:none;stroke:#333333;stroke-width:1.06697798;stroke-linecap:butt;stroke-linejoin:round;stroke-miterlimit:10;stroke-dasharray:none;stroke-opacity:1"
             id="path176"
             inkscape:connector-curvature="0" /></g><g
           id="g178"
           transform="matrix(1,0,0,-1,0,338.8235)"><path
             d="M 206.5792,93.02453 H 169.9706"
             style="fill:none;stroke:#333333;stroke-width:1.06697798;stroke-linecap:butt;stroke-linejoin:round;stroke-miterlimit:10;stroke-dasharray:none;stroke-opacity:1"
             id="path180"
             inkscape:connector-curvature="0" /></g><g
           id="g182"
           transform="matrix(1,0,0,-1,0,338.8235)"><path
             d="m 255.7174,97.70124 h -49.1382 v -9.35342 h 49.1382 z"
             style="fill:#ffffff;fill-opacity:1;fill-rule:nonzero;stroke:#333333;stroke-width:1.06697798;stroke-linecap:round;stroke-linejoin:round;stroke-miterlimit:10;stroke-dasharray:none;stroke-opacity:1"
             id="path184"
             inkscape:connector-curvature="0" /></g><g
           id="g186"
           transform="matrix(1,0,0,-1,0,338.8235)"><path
             d="M 227.9282,97.70124 V 88.34782"
             style="fill:none;stroke:#333333;stroke-width:2.13395691;stroke-linecap:butt;stroke-linejoin:round;stroke-miterlimit:10;stroke-dasharray:none;stroke-opacity:1"
             id="path188"
             inkscape:connector-curvature="0" /></g><g
           id="g190"
           transform="matrix(1,0,0,-1,0,338.8235)"><path
             d="m 366.6076,80.5533 c 0,1.07961 -0.8752,1.9548 -1.9548,1.9548 -1.0796,0 -1.9548,-0.87519 -1.9548,-1.9548 0,-1.0796 0.8752,-1.9548 1.9548,-1.9548 1.0796,0 1.9548,0.8752 1.9548,1.9548 z"
             style="fill:#333333;fill-opacity:1;fill-rule:nonzero;stroke:#333333;stroke-width:0.70866138;stroke-linecap:round;stroke-linejoin:round;stroke-miterlimit:10;stroke-dasharray:none;stroke-opacity:1"
             id="path192"
             inkscape:connector-curvature="0" /></g><g
           id="g194"
           transform="matrix(1,0,0,-1,0,338.8235)"><path
             d="m 266.2142,80.5533 h 38.9211"
             style="fill:none;stroke:#333333;stroke-width:1.06697798;stroke-linecap:butt;stroke-linejoin:round;stroke-miterlimit:10;stroke-dasharray:none;stroke-opacity:1"
             id="path196"
             inkscape:connector-curvature="0" /></g><g
           id="g198"
           transform="matrix(1,0,0,-1,0,338.8235)"><path
             d="M 204.7066,80.5533 H 189.9228"
             style="fill:none;stroke:#333333;stroke-width:1.06697798;stroke-linecap:butt;stroke-linejoin:round;stroke-miterlimit:10;stroke-dasharray:none;stroke-opacity:1"
             id="path200"
             inkscape:connector-curvature="0" /></g><g
           id="g202"
           transform="matrix(1,0,0,-1,0,338.8235)"><path
             d="m 266.2142,85.23001 h -61.5076 v -9.35342 h 61.5076 z"
             style="fill:#ffffff;fill-opacity:1;fill-rule:nonzero;stroke:#333333;stroke-width:1.06697798;stroke-linecap:round;stroke-linejoin:round;stroke-miterlimit:10;stroke-dasharray:none;stroke-opacity:1"
             id="path204"
             inkscape:connector-curvature="0" /></g><g
           id="g206"
           transform="matrix(1,0,0,-1,0,338.8235)"><path
             d="M 240.3668,85.23001 V 75.87659"
             style="fill:none;stroke:#333333;stroke-width:2.13395691;stroke-linecap:butt;stroke-linejoin:round;stroke-miterlimit:10;stroke-dasharray:none;stroke-opacity:1"
             id="path208"
             inkscape:connector-curvature="0" /></g><g
           id="g210"
           transform="matrix(1,0,0,-1,0,338.8235)"><path
             d="m 404.473,68.08208 c 0,1.0796 -0.8752,1.95479 -1.9548,1.95479 -1.0796,0 -1.9548,-0.87519 -1.9548,-1.95479 0,-1.07961 0.8752,-1.9548 1.9548,-1.9548 1.0796,0 1.9548,0.87519 1.9548,1.9548 z"
             style="fill:#333333;fill-opacity:1;fill-rule:nonzero;stroke:#333333;stroke-width:0.70866138;stroke-linecap:round;stroke-linejoin:round;stroke-miterlimit:10;stroke-dasharray:none;stroke-opacity:1"
             id="path212"
             inkscape:connector-curvature="0" /></g><g
           id="g214"
           transform="matrix(1,0,0,-1,0,338.8235)"><path
             d="m 360.0582,68.08208 c 0,1.0796 -0.8752,1.95479 -1.9548,1.95479 -1.0796,0 -1.9548,-0.87519 -1.9548,-1.95479 0,-1.07961 0.8752,-1.9548 1.9548,-1.9548 1.0796,0 1.9548,0.87519 1.9548,1.9548 z"
             style="fill:#333333;fill-opacity:1;fill-rule:nonzero;stroke:#333333;stroke-width:0.70866138;stroke-linecap:round;stroke-linejoin:round;stroke-miterlimit:10;stroke-dasharray:none;stroke-opacity:1"
             id="path216"
             inkscape:connector-curvature="0" /></g><g
           id="g218"
           transform="matrix(1,0,0,-1,0,338.8235)"><path
             d="m 252.1833,68.08208 h 0.003"
             style="fill:none;stroke:#333333;stroke-width:1.06697798;stroke-linecap:butt;stroke-linejoin:round;stroke-miterlimit:10;stroke-dasharray:none;stroke-opacity:1"
             id="path220"
             inkscape:connector-curvature="0" /></g><g
           id="g222"
           transform="matrix(1,0,0,-1,0,338.8235)"><path
             d="m 226.5805,68.08208 h -8.8692"
             style="fill:none;stroke:#333333;stroke-width:1.06697798;stroke-linecap:butt;stroke-linejoin:round;stroke-miterlimit:10;stroke-dasharray:none;stroke-opacity:1"
             id="path224"
             inkscape:connector-curvature="0" /></g><g
           id="g226"
           transform="matrix(1,0,0,-1,0,338.8235)"><path
             d="m 252.1833,72.75878 h -25.6028 v -9.35341 h 25.6028 z"
             style="fill:#ffffff;fill-opacity:1;fill-rule:nonzero;stroke:#333333;stroke-width:1.06697798;stroke-linecap:round;stroke-linejoin:round;stroke-miterlimit:10;stroke-dasharray:none;stroke-opacity:1"
             id="path228"
             inkscape:connector-curvature="0" /></g><g
           id="g230"
           transform="matrix(1,0,0,-1,0,338.8235)"><path
             d="M 240.0292,72.75878 V 63.40537"
             style="fill:none;stroke:#333333;stroke-width:2.13395691;stroke-linecap:butt;stroke-linejoin:round;stroke-miterlimit:10;stroke-dasharray:none;stroke-opacity:1"
             id="path232"
             inkscape:connector-curvature="0" /></g><g
           id="g234"
           transform="matrix(1,0,0,-1,0,338.8235)"><path
             d="m 194.8912,55.61085 c 0,1.0796 -0.8752,1.9548 -1.9548,1.9548 -1.0796,0 -1.9548,-0.8752 -1.9548,-1.9548 0,-1.07961 0.8752,-1.9548 1.9548,-1.9548 1.0796,0 1.9548,0.87519 1.9548,1.9548 z"
             style="fill:#333333;fill-opacity:1;fill-rule:nonzero;stroke:#333333;stroke-width:0.70866138;stroke-linecap:round;stroke-linejoin:round;stroke-miterlimit:10;stroke-dasharray:none;stroke-opacity:1"
             id="path236"
             inkscape:connector-curvature="0" /></g><g
           id="g238"
           transform="matrix(1,0,0,-1,0,338.8235)"><path
             d="m 260.298,55.61085 c 0,1.0796 -0.8751,1.9548 -1.9548,1.9548 -1.0796,0 -1.9548,-0.8752 -1.9548,-1.9548 0,-1.07961 0.8752,-1.9548 1.9548,-1.9548 1.0797,0 1.9548,0.87519 1.9548,1.9548 z"
             style="fill:#333333;fill-opacity:1;fill-rule:nonzero;stroke:#333333;stroke-width:0.70866138;stroke-linecap:round;stroke-linejoin:round;stroke-miterlimit:10;stroke-dasharray:none;stroke-opacity:1"
             id="path240"
             inkscape:connector-curvature="0" /></g><g
           id="g242"
           transform="matrix(1,0,0,-1,0,338.8235)"><path
             d="m 219.5915,55.61085 h 0.6024"
             style="fill:none;stroke:#333333;stroke-width:1.06697798;stroke-linecap:butt;stroke-linejoin:round;stroke-miterlimit:10;stroke-dasharray:none;stroke-opacity:1"
             id="path244"
             inkscape:connector-curvature="0" /></g><g
           id="g246"
           transform="matrix(1,0,0,-1,0,338.8235)"><path
             d="m 209.9159,55.61085 h -1.3597"
             style="fill:none;stroke:#333333;stroke-width:1.06697798;stroke-linecap:butt;stroke-linejoin:round;stroke-miterlimit:10;stroke-dasharray:none;stroke-opacity:1"
             id="path248"
             inkscape:connector-curvature="0" /></g><g
           id="g250"
           transform="matrix(1,0,0,-1,0,338.8235)"><path
             d="m 219.5915,60.28756 h -9.6756 v -9.35342 h 9.6756 z"
             style="fill:#ffffff;fill-opacity:1;fill-rule:nonzero;stroke:#333333;stroke-width:1.06697798;stroke-linecap:round;stroke-linejoin:round;stroke-miterlimit:10;stroke-dasharray:none;stroke-opacity:1"
             id="path252"
             inkscape:connector-curvature="0" /></g><g
           id="g254"
           transform="matrix(1,0,0,-1,0,338.8235)"><path
             d="M 215.8896,60.28756 V 50.93414"
             style="fill:none;stroke:#333333;stroke-width:2.13395691;stroke-linecap:butt;stroke-linejoin:round;stroke-miterlimit:10;stroke-dasharray:none;stroke-opacity:1"
             id="path256"
             inkscape:connector-curvature="0" /></g><g
           id="g258"
           transform="matrix(1,0,0,-1,0,338.8235)"><path
             d="M 332.1347,43.13962 H 366.44"
             style="fill:none;stroke:#333333;stroke-width:1.06697798;stroke-linecap:butt;stroke-linejoin:round;stroke-miterlimit:10;stroke-dasharray:none;stroke-opacity:1"
             id="path260"
             inkscape:connector-curvature="0" /></g><g
           id="g262"
           transform="matrix(1,0,0,-1,0,338.8235)"><path
             d="M 263.5241,43.13962 H 229.2188"
             style="fill:none;stroke:#333333;stroke-width:1.06697798;stroke-linecap:butt;stroke-linejoin:round;stroke-miterlimit:10;stroke-dasharray:none;stroke-opacity:1"
             id="path264"
             inkscape:connector-curvature="0" /></g><g
           id="g266"
           transform="matrix(1,0,0,-1,0,338.8235)"><path
             d="m 332.1347,47.81633 h -68.6106 v -9.35342 h 68.6106 z"
             style="fill:#ffffff;fill-opacity:1;fill-rule:nonzero;stroke:#333333;stroke-width:1.06697798;stroke-linecap:round;stroke-linejoin:round;stroke-miterlimit:10;stroke-dasharray:none;stroke-opacity:1"
             id="path268"
             inkscape:connector-curvature="0" /></g><g
           id="g270"
           transform="matrix(1,0,0,-1,0,338.8235)"><path
             d="M 297.8294,47.81633 V 38.46291"
             style="fill:none;stroke:#333333;stroke-width:2.13395691;stroke-linecap:butt;stroke-linejoin:round;stroke-miterlimit:10;stroke-dasharray:none;stroke-opacity:1"
             id="path272"
             inkscape:connector-curvature="0" /></g><g
           id="g274"
           transform="matrix(1,0,0,-1,0,338.8235)"><path
             d="m 352.1126,30.6684 c 0,1.0796 -0.8752,1.9548 -1.9548,1.9548 -1.0796,0 -1.9548,-0.8752 -1.9548,-1.9548 0,-1.07961 0.8752,-1.9548 1.9548,-1.9548 1.0796,0 1.9548,0.87519 1.9548,1.9548 z"
             style="fill:#333333;fill-opacity:1;fill-rule:nonzero;stroke:#333333;stroke-width:0.70866138;stroke-linecap:round;stroke-linejoin:round;stroke-miterlimit:10;stroke-dasharray:none;stroke-opacity:1"
             id="path276"
             inkscape:connector-curvature="0" /></g><g
           id="g278"
           transform="matrix(1,0,0,-1,0,338.8235)"><path
             d="m 281.595,30.6684 c 0,1.0796 -0.8752,1.9548 -1.9548,1.9548 -1.0796,0 -1.9548,-0.8752 -1.9548,-1.9548 0,-1.07961 0.8752,-1.9548 1.9548,-1.9548 1.0796,0 1.9548,0.87519 1.9548,1.9548 z"
             style="fill:#333333;fill-opacity:1;fill-rule:nonzero;stroke:#333333;stroke-width:0.70866138;stroke-linecap:round;stroke-linejoin:round;stroke-miterlimit:10;stroke-dasharray:none;stroke-opacity:1"
             id="path280"
             inkscape:connector-curvature="0" /></g><g
           id="g282"
           transform="matrix(1,0,0,-1,0,338.8235)"><path
             d="m 237.6947,30.6684 h 23.3922"
             style="fill:none;stroke:#333333;stroke-width:1.06697798;stroke-linecap:butt;stroke-linejoin:round;stroke-miterlimit:10;stroke-dasharray:none;stroke-opacity:1"
             id="path284"
             inkscape:connector-curvature="0" /></g><g
           id="g286"
           transform="matrix(1,0,0,-1,0,338.8235)"><path
             d="m 211.7674,30.6684 h -8.2862"
             style="fill:none;stroke:#333333;stroke-width:1.06697798;stroke-linecap:butt;stroke-linejoin:round;stroke-miterlimit:10;stroke-dasharray:none;stroke-opacity:1"
             id="path288"
             inkscape:connector-curvature="0" /></g><g
           id="g290"
           transform="matrix(1,0,0,-1,0,338.8235)"><path
             d="m 237.6947,35.34511 h -25.9273 v -9.35342 h 25.9273 z"
             style="fill:#ffffff;fill-opacity:1;fill-rule:nonzero;stroke:#333333;stroke-width:1.06697798;stroke-linecap:round;stroke-linejoin:round;stroke-miterlimit:10;stroke-dasharray:none;stroke-opacity:1"
             id="path292"
             inkscape:connector-curvature="0" /></g><g
           id="g294"
           transform="matrix(1,0,0,-1,0,338.8235)"><path
             d="M 225.7016,35.34511 V 25.99169"
             style="fill:none;stroke:#333333;stroke-width:2.13395691;stroke-linecap:butt;stroke-linejoin:round;stroke-miterlimit:10;stroke-dasharray:none;stroke-opacity:1"
             id="path296"
             inkscape:connector-curvature="0" /></g></g></g><g
       id="g306"
       transform="matrix(1,0,0,-1,76.5,338.8235)"><text
         transform="translate(23.29369,133.5878)"
         style="font-variant:normal;font-weight:normal;font-size:8.80000019px;font-family:Arial;-inkscape-font-specification:ArialMT;writing-mode:lr-tb;fill:#4d4d4d;fill-opacity:1;fill-rule:nonzero;stroke:none"
         id="text310"><tspan
           sodipodi:role="line"
           id="tspan308"
           x="0"
           y="0"
           style="font-style:italic;font-variant:normal;font-weight:normal;font-stretch:normal;font-family:Arial;-inkscape-font-specification:'Arial Italic'">H. americana</tspan></text>
</g><g
       id="g312"
       transform="matrix(1,0,0,-1,76.5,338.8235)"><text
         transform="translate(18.40814,121.1166)"
         style="font-variant:normal;font-weight:normal;font-size:8.80000019px;font-family:Arial;-inkscape-font-specification:ArialMT;writing-mode:lr-tb;fill:#4d4d4d;fill-opacity:1;fill-rule:nonzero;stroke:none"
         id="text316"><tspan
           sodipodi:role="line"
           id="tspan314"
           x="0"
           y="0"
           style="font-style:italic;font-variant:normal;font-weight:normal;font-stretch:normal;font-family:Arial;-inkscape-font-specification:'Arial Italic'">H. hirsuticaulis</tspan></text>
</g><g
       id="g318"
       transform="matrix(1,0,0,-1,31.5,338.8235)"><text
         transform="translate(65.36439,108.6454)"
         style="font-variant:normal;font-weight:normal;font-size:8.80000019px;font-family:Arial;-inkscape-font-specification:ArialMT;writing-mode:lr-tb;fill:#4d4d4d;fill-opacity:1;fill-rule:nonzero;stroke:none"
         id="text322"><tspan
           sodipodi:role="line"
           id="tspan320"
           x="0"
           y="0"
           style="font-style:italic;font-variant:normal;font-weight:normal;font-stretch:normal;font-family:Arial;-inkscape-font-specification:'Arial Italic'">H. richardsonii</tspan></text>
</g><g
       id="g324"
       transform="matrix(1,0,0,-1,25.5,338.8235)"><text
         transform="translate(34.04446,96.17414)"
         style="font-variant:normal;font-weight:normal;font-size:8.80000019px;font-family:Arial;-inkscape-font-specification:ArialMT;writing-mode:lr-tb;fill:#4d4d4d;fill-opacity:1;fill-rule:nonzero;stroke:none"
         id="text328"><tspan
           sodipodi:role="line"
           id="tspan326"
           x="0"
           y="0"
           style="font-style:italic;font-variant:normal;font-weight:normal;font-stretch:normal;font-family:Arial;-inkscape-font-specification:'Arial Italic'">H. longiflora v. longiflora</tspan></text>
</g><g
       id="g330"
       transform="matrix(1,0,0,-1,25.5,338.8235)"><text
         transform="translate(31.59954,83.70291)"
         style="font-variant:normal;font-weight:normal;font-size:8.80000019px;font-family:Arial;-inkscape-font-specification:ArialMT;writing-mode:lr-tb;fill:#4d4d4d;fill-opacity:1;fill-rule:nonzero;stroke:none"
         id="text334"><tspan
           sodipodi:role="line"
           id="tspan332"
           x="0"
           y="0"
           style="font-style:italic;font-variant:normal;font-weight:normal;font-stretch:normal;font-family:Arial;-inkscape-font-specification:'Arial Italic'">H. longiflora v. aceroides</tspan></text>
</g><g
       id="g336"
       transform="matrix(1,0,0,-1,31.5,338.8235)"><text
         transform="translate(57.05853,71.23168)"
         style="font-variant:normal;font-weight:normal;font-size:8.80000019px;font-family:Arial;-inkscape-font-specification:ArialMT;writing-mode:lr-tb;fill:#4d4d4d;fill-opacity:1;fill-rule:nonzero;stroke:none"
         id="text340"><tspan
           sodipodi:role="line"
           id="tspan338"
           x="0"
           y="0"
           style="font-style:italic;font-variant:normal;font-weight:normal;font-stretch:normal;font-family:Arial;-inkscape-font-specification:'Arial Italic'">H. missouriensis</tspan></text>
</g><g
       id="g342"
       transform="matrix(1,0,0,-1,25.5,338.8235)"><text
         transform="translate(33.08197,58.76046)"
         style="font-variant:normal;font-weight:normal;font-size:8.80000019px;font-family:Arial;-inkscape-font-specification:ArialMT;writing-mode:lr-tb;fill:#4d4d4d;fill-opacity:1;fill-rule:nonzero;stroke:none"
         id="text346"><tspan
           sodipodi:role="line"
           id="tspan344"
           x="0"
           y="0"
           style="font-style:italic;font-variant:normal;font-weight:normal;font-stretch:normal;font-family:Arial;-inkscape-font-specification:'Arial Italic'">H. parviflora v. parviflora</tspan></text>
</g><g
       id="g348"
       transform="matrix(1,0,0,-1,25.5,338.8235)"><text
         transform="translate(31.61244,46.28923)"
         style="font-variant:normal;font-weight:normal;font-size:8.80000019px;font-family:Arial;-inkscape-font-specification:ArialMT;writing-mode:lr-tb;fill:#4d4d4d;fill-opacity:1;fill-rule:nonzero;stroke:none"
         id="text352"><tspan
           sodipodi:role="line"
           id="tspan350"
           x="0"
           y="0"
           style="font-style:italic;font-variant:normal;font-weight:normal;font-stretch:normal;font-family:Arial;-inkscape-font-specification:'Arial Italic'">H. parviflora v. saurensis</tspan></text>
</g><g
       id="g354"
       transform="matrix(1,0,0,-1,31.5,338.8235)"><text
         transform="translate(76.11088,33.81801)"
         style="font-variant:normal;font-weight:normal;font-size:8.80000019px;font-family:Arial;-inkscape-font-specification:ArialMT;writing-mode:lr-tb;fill:#4d4d4d;fill-opacity:1;fill-rule:nonzero;stroke:none"
         id="text358"><tspan
           sodipodi:role="line"
           id="tspan356"
           x="0"
           y="0"
           style="font-style:italic;font-variant:normal;font-weight:normal;font-stretch:normal;font-family:Arial;-inkscape-font-specification:'Arial Italic'">H. puberula</tspan></text>
</g><g
       id="g360"><g
         id="g362"
         clip-path="url(#clipPath366)"><g
           id="g368"
           transform="matrix(1,0,0,-1,0,338.8235)"><path
             d="m 155.6034,130.4382 h 2.7398"
             style="fill:none;stroke:#333333;stroke-width:1.06697798;stroke-linecap:butt;stroke-linejoin:round;stroke-miterlimit:10;stroke-dasharray:none;stroke-opacity:1"
             id="path370"
             inkscape:connector-curvature="0" /></g><g
           id="g372"
           transform="matrix(1,0,0,-1,0,338.8235)"><path
             d="m 155.6034,117.967 h 2.7398"
             style="fill:none;stroke:#333333;stroke-width:1.06697798;stroke-linecap:butt;stroke-linejoin:round;stroke-miterlimit:10;stroke-dasharray:none;stroke-opacity:1"
             id="path374"
             inkscape:connector-curvature="0" /></g><g
           id="g376"
           transform="matrix(1,0,0,-1,0,338.8235)"><path
             d="m 155.6034,105.4958 h 2.7398"
             style="fill:none;stroke:#333333;stroke-width:1.06697798;stroke-linecap:butt;stroke-linejoin:round;stroke-miterlimit:10;stroke-dasharray:none;stroke-opacity:1"
             id="path378"
             inkscape:connector-curvature="0" /></g><g
           id="g380"
           transform="matrix(1,0,0,-1,0,338.8235)"><path
             d="m 155.6034,93.02453 h 2.7398"
             style="fill:none;stroke:#333333;stroke-width:1.06697798;stroke-linecap:butt;stroke-linejoin:round;stroke-miterlimit:10;stroke-dasharray:none;stroke-opacity:1"
             id="path382"
             inkscape:connector-curvature="0" /></g><g
           id="g384"
           transform="matrix(1,0,0,-1,0,338.8235)"><path
             d="m 155.6034,80.5533 h 2.7398"
             style="fill:none;stroke:#333333;stroke-width:1.06697798;stroke-linecap:butt;stroke-linejoin:round;stroke-miterlimit:10;stroke-dasharray:none;stroke-opacity:1"
             id="path386"
             inkscape:connector-curvature="0" /></g><g
           id="g388"
           transform="matrix(1,0,0,-1,0,338.8235)"><path
             d="m 155.6034,68.08208 h 2.7398"
             style="fill:none;stroke:#333333;stroke-width:1.06697798;stroke-linecap:butt;stroke-linejoin:round;stroke-miterlimit:10;stroke-dasharray:none;stroke-opacity:1"
             id="path390"
             inkscape:connector-curvature="0" /></g><g
           id="g392"
           transform="matrix(1,0,0,-1,0,338.8235)"><path
             d="m 155.6034,55.61085 h 2.7398"
             style="fill:none;stroke:#333333;stroke-width:1.06697798;stroke-linecap:butt;stroke-linejoin:round;stroke-miterlimit:10;stroke-dasharray:none;stroke-opacity:1"
             id="path394"
             inkscape:connector-curvature="0" /></g><g
           id="g396"
           transform="matrix(1,0,0,-1,0,338.8235)"><path
             d="m 155.6034,43.13962 h 2.7398"
             style="fill:none;stroke:#333333;stroke-width:1.06697798;stroke-linecap:butt;stroke-linejoin:round;stroke-miterlimit:10;stroke-dasharray:none;stroke-opacity:1"
             id="path398"
             inkscape:connector-curvature="0" /></g><g
           id="g400"
           transform="matrix(1,0,0,-1,0,338.8235)"><path
             d="m 155.6034,30.6684 h 2.7398"
             style="fill:none;stroke:#333333;stroke-width:1.06697798;stroke-linecap:butt;stroke-linejoin:round;stroke-miterlimit:10;stroke-dasharray:none;stroke-opacity:1"
             id="path402"
             inkscape:connector-curvature="0" /></g></g></g><g
       id="g404"><g
         id="g406"
         clip-path="url(#clipPath410)"><g
           id="g412"
           transform="matrix(1,0,0,-1,0,338.8235)"><path
             d="m 228.0224,140.6607 v -2.7398"
             style="fill:none;stroke:#333333;stroke-width:1.06697798;stroke-linecap:butt;stroke-linejoin:round;stroke-miterlimit:10;stroke-dasharray:none;stroke-opacity:1"
             id="path414"
             inkscape:connector-curvature="0" /></g><g
           id="g416"
           transform="matrix(1,0,0,-1,0,338.8235)"><path
             d="m 315.0712,140.6607 v -2.7398"
             style="fill:none;stroke:#333333;stroke-width:1.06697798;stroke-linecap:butt;stroke-linejoin:round;stroke-miterlimit:10;stroke-dasharray:none;stroke-opacity:1"
             id="path418"
             inkscape:connector-curvature="0" /></g><g
           id="g420"
           transform="matrix(1,0,0,-1,0,338.8235)"><path
             d="m 402.12,140.6607 v -2.7398"
             style="fill:none;stroke:#333333;stroke-width:1.06697798;stroke-linecap:butt;stroke-linejoin:round;stroke-miterlimit:10;stroke-dasharray:none;stroke-opacity:1"
             id="path422"
             inkscape:connector-curvature="0" /></g></g></g><g
       id="g424"><g
         id="g426"
         clip-path="url(#clipPath430)"><g
           id="g432"
           transform="matrix(1,0,0,-1,0,338.8235)"><text
             transform="translate(225.5753,149.1517)"
             style="font-variant:normal;font-weight:normal;font-size:8.80000019px;font-family:Arial;-inkscape-font-specification:ArialMT;writing-mode:lr-tb;fill:#4d4d4d;fill-opacity:1;fill-rule:nonzero;stroke:none"
             id="text436"><tspan
               x="0"
               y="0"
               id="tspan434">2</tspan></text>
</g><g
           id="g438"
           transform="matrix(1,0,0,-1,0,338.8235)"><text
             transform="translate(312.6241,149.1517)"
             style="font-variant:normal;font-weight:normal;font-size:8.80000019px;font-family:Arial;-inkscape-font-specification:ArialMT;writing-mode:lr-tb;fill:#4d4d4d;fill-opacity:1;fill-rule:nonzero;stroke:none"
             id="text442"><tspan
               x="0"
               y="0"
               id="tspan440">4</tspan></text>
</g><g
           id="g444"
           transform="matrix(1,0,0,-1,0,338.8235)"><text
             transform="translate(399.673,149.1517)"
             style="font-variant:normal;font-weight:normal;font-size:8.80000019px;font-family:Arial;-inkscape-font-specification:ArialMT;writing-mode:lr-tb;fill:#4d4d4d;fill-opacity:1;fill-rule:nonzero;stroke:none"
             id="text448"><tspan
               x="0"
               y="0"
               id="tspan446">6</tspan></text>
</g></g></g><g
       id="g450"><g
         id="g452"
         clip-path="url(#clipPath456)"><g
           id="g458"
           transform="matrix(1,0,0,-1,0,338.8235)"><text
             transform="translate(261.0486,161.6174)"
             style="font-variant:normal;font-weight:normal;font-size:11px;font-family:Arial;-inkscape-font-specification:ArialMT;writing-mode:lr-tb;fill:#000000;fill-opacity:1;fill-rule:nonzero;stroke:none"
             id="text462"><tspan
               x="0 6.7188001 12.837 15.2812 18.337 24.4552 26.555099 32.055099 35.110901 42.447899"
               y="0"
               sodipodi:role="line"
               id="tspan460">Faith's PD</tspan></text>
</g></g></g><g
       id="g464"><g
         id="g466"
         clip-path="url(#clipPath470)"><g
           id="g472"
           transform="matrix(1,0,0,-1,0,338.8235)"><text
             transform="translate(158.3432,14.92828)"
             style="font-variant:normal;font-weight:normal;font-size:13.19999981px;font-family:Arial;-inkscape-font-specification:ArialMT;writing-mode:lr-tb;fill:#000000;fill-opacity:1;fill-rule:nonzero;stroke:none"
             id="text476"><tspan
               x="0 8.8044004 16.14624 22.746241 26.4132 33.755039 38.150639 41.083679 48.425522 51.358559 55.02552 63.088081 70.429916 73.362961 77.029922 84.371758 86.89164 93.491638 97.1586 105.963 115.49604 119.163 125.763 132.36301 136.02995 139.69691 143.36388 150.70572 157.30573 164.64755"
               y="0"
               sodipodi:role="line"
               id="tspan474">Bacterial Faith's PD vs. taxon</tspan></text>
</g></g></g></g></svg>